<svg xmlns="http://www.w3.org/2000/svg" viewBox="0 0 1024 576" preserveAspectRatio="xMidYMid meet">
  <rect width="1024" height="576" fill="#f1f5f9"/>
  <rect x="0" y="0" width="1024" height="44" fill="#1e293b"/>
  <text x="20" y="29" fill="#f8fafc" font-family="Segoe UI, sans-serif" font-size="16" font-weight="700">DUX - Compras Now</text>
  <text x="900" y="29" fill="#94a3b8" font-family="Segoe UI, sans-serif" font-size="12">Minerva Foods</text>
  <rect x="20" y="60" width="984" height="60" fill="#ffffff" stroke="#cbd5e1"/>
  <text x="40" y="83" fill="#475569" font-family="Segoe UI, sans-serif" font-size="12">Periodo de Compra</text>
  <text x="40" y="103" fill="#0f172a" font-family="Segoe UI, sans-serif" font-size="14" font-weight="600">20/05/2026 a 20/05/2026</text>
  <text x="260" y="83" fill="#475569" font-family="Segoe UI, sans-serif" font-size="12">Origens</text>
  <text x="260" y="103" fill="#0f172a" font-family="Segoe UI, sans-serif" font-size="14" font-weight="600">AR, BR, CO, PY, UY</text>
  <text x="500" y="83" fill="#475569" font-family="Segoe UI, sans-serif" font-size="12">Perfil de Layout</text>
  <text x="500" y="103" fill="#0f172a" font-family="Segoe UI, sans-serif" font-size="14" font-weight="600">KPI REPORT RPA</text>
  <rect x="900" y="72" width="90" height="32" fill="#E30613"/>
  <text x="945" y="93" fill="#ffffff" font-family="Segoe UI, sans-serif" font-size="13" font-weight="700" text-anchor="middle">Pesquisar</text>

  <rect x="20" y="140" width="984" height="32" fill="#1e293b"/>
  <text x="512" y="161" fill="#f8fafc" font-family="Segoe UI, sans-serif" font-size="14" font-weight="700" text-anchor="middle">Atencao para "Tipo Compra" quando olhar dados de preco medio.</text>

  <g font-family="Segoe UI, sans-serif" font-size="11" fill="#0f172a">
    <rect x="20" y="182" width="984" height="28" fill="#e2e8f0"/>
    <text x="32" y="200" font-weight="700">Pais Origem</text>
    <text x="160" y="200" font-weight="700">Sexo</text>
    <text x="280" y="200" font-weight="700">Qtd. Compra</text>
    <text x="420" y="200" font-weight="700">Peso Medio Kg</text>
    <text x="580" y="200" font-weight="700">Preco Medio USD/Kg</text>
    <text x="780" y="200" font-weight="700">Cotacao USD</text>

    <g>
      <text x="32" y="226" font-weight="700">AR</text>
      <text x="160" y="226">FEMEA</text><text x="280" y="226">1.021</text><text x="420" y="226">498,54</text><text x="580" y="226">3,97</text><text x="780" y="226">1.398,00</text>
    </g>
    <g>
      <text x="160" y="246">MACHO</text><text x="280" y="246">8.175</text><text x="420" y="246">501,13</text><text x="580" y="246">5,51</text><text x="780" y="246">1.398,00</text>
    </g>
    <g>
      <text x="32" y="266" font-weight="700">AR Total</text>
      <text x="280" y="266" font-weight="700">9.196</text><text x="420" y="266" font-weight="700">500,84</text><text x="580" y="266" font-weight="700">5,40</text>
    </g>

    <g>
      <text x="32" y="290" font-weight="700">BR</text>
      <text x="160" y="290">FEMEA</text><text x="280" y="290">3.127</text><text x="420" y="290">213,46</text><text x="580" y="290">4,48</text><text x="780" y="290">5,04</text>
    </g>
    <g>
      <text x="160" y="310">MACHO</text><text x="280" y="310">3.633</text><text x="420" y="310">286,35</text><text x="580" y="310">4,67</text><text x="780" y="310">5,04</text>
    </g>
    <g>
      <text x="32" y="330" font-weight="700">BR Total</text>
      <text x="280" y="330" font-weight="700">6.760</text><text x="420" y="330" font-weight="700">252,63</text><text x="580" y="330" font-weight="700">4,58</text>
    </g>

    <g>
      <text x="32" y="354" font-weight="700">PY</text>
      <text x="160" y="354">FEMEA</text><text x="280" y="354">1.966</text><text x="420" y="354">194,60</text><text x="580" y="354">4,91</text><text x="780" y="354">6.169,09</text>
    </g>
    <g>
      <text x="160" y="374">MACHO</text><text x="280" y="374">1.578</text><text x="420" y="374">209,64</text><text x="580" y="374">5,04</text><text x="780" y="374">6.169,09</text>
    </g>
    <g>
      <text x="32" y="394" font-weight="700">PY Total</text>
      <text x="280" y="394" font-weight="700">3.544</text><text x="420" y="394" font-weight="700">201,30</text><text x="580" y="394" font-weight="700">4,97</text>
    </g>

    <g>
      <text x="32" y="418" font-weight="700">UY</text>
      <text x="160" y="418">FEMEA</text><text x="280" y="418">302</text><text x="420" y="418">249,86</text><text x="580" y="418">5,22</text><text x="780" y="418">40,30</text>
    </g>
    <g>
      <text x="160" y="438">MACHO</text><text x="280" y="438">534</text><text x="420" y="438">285,34</text><text x="580" y="438">5,76</text><text x="780" y="438">40,30</text>
    </g>
    <g>
      <text x="32" y="458" font-weight="700">UY Total</text>
      <text x="280" y="458" font-weight="700">836</text><text x="420" y="458" font-weight="700">272,53</text><text x="580" y="458" font-weight="700">5,58</text>
    </g>

    <g>
      <text x="32" y="486" font-weight="700">CO</text>
      <text x="160" y="486">FEMEA</text><text x="280" y="486">408</text><text x="420" y="486">283,04</text><text x="580" y="486">4,36</text><text x="780" y="486">3.796,87</text>
    </g>
    <g>
      <text x="160" y="506">MACHO</text><text x="280" y="506">283</text><text x="420" y="506">256,22</text><text x="580" y="506">5,21</text><text x="780" y="506">3.796,87</text>
    </g>

    <rect x="20" y="520" width="984" height="28" fill="#1e293b"/>
    <text x="32" y="538" fill="#f8fafc" font-weight="700">Grand Total</text>
    <text x="280" y="538" fill="#f8fafc" font-weight="700">21.027</text>
    <text x="420" y="538" fill="#f8fafc" font-weight="700">353,96</text>
    <text x="580" y="538" fill="#f8fafc" font-weight="700">5,09</text>
  </g>

  <rect x="0" y="556" width="1024" height="20" fill="#1e293b"/>
  <text x="20" y="570" fill="#94a3b8" font-family="Segoe UI, sans-serif" font-size="11">Mock screenshot - capturado em 20/05/2026 15:00:32</text>
  <text x="1004" y="570" fill="#94a3b8" font-family="Segoe UI, sans-serif" font-size="11" text-anchor="end">MINERVAREPORTS</text>
</svg>
